<svg version="1.1" id="ico_x5F_34_2_" xmlns="http://www.w3.org/2000/svg" xmlns:xlink="http://www.w3.org/1999/xlink" x="0px"
	 y="0px" viewBox="0 0 96 96" style="enable-background:new 0 0 96 96;" xml:space="preserve">
<style type="text/css">
	.st0{fill:#224F83;}
	.st1{fill:#A6A6A6;}
</style>
<g id="ico_x5F_34">
	<g id="ico_x5F_34_1_">
		<path class="st0" d="M56.2,52c4,0,7.3,2.7,7.6,6.2c-1.6,0.3-2.7,1.1-2.3,3.1c0.6-0.4,1.3-0.8,2.1-1c0,0,0,0,0,0
			c0.2-0.1,0.3-0.1,0.5-0.2c0,0,0.1,0,0.1,0c0.5-0.1,1.1-0.2,1.7-0.2c3.4,0,6.1,2.5,6.1,5.5c0,2.9-2.5,5.3-5.6,5.5l0,0H46l0,0
			c-3.4-0.5-6-3.6-6-7.2c0-3.9,3.1-7.1,6.9-7.2c-0.4,1.4-0.3,2.8,1.3,3.4c0-1,0.3-2.1,0.7-3.2c0,0,0,0,0,0c0,0,0-0.1,0-0.1
			c0.2-0.5,0.4-0.9,0.7-1.3C50.9,53.4,53.4,52,56.2,52 M56.2,48c-3.8,0-7.3,1.7-9.5,4.6c-6,0.2-10.7,5.1-10.7,11.2
			c0,5.2,3.4,9.6,8.3,10.9c0.5,0.2,1.1,0.4,1.7,0.4h20.5c0.3,0,0.6,0,0.9-0.1c5-0.7,8.7-4.6,8.7-9.4c0-4.7-3.7-8.7-8.6-9.4
			C66.1,51.4,61.6,48,56.2,48L56.2,48z"/>
		<path class="st0" d="M79.5,43.2c-1.2-2.5-3.8-4.2-6.9-4.2c-2.1,0-4.1,0.8-5.5,2.3c-2.4,0.4-4.4,2-5.4,4.2c1.3,0.5,2.5,1.1,3.6,1.9
			c0.5-1.2,1.6-2.1,3-2.2c-0.2,0.7-0.1,1.3,0.6,1.6c0-0.5,0.1-1,0.3-1.5h0c0,0,0,0,0-0.1c0.1-0.2,0.2-0.4,0.3-0.6
			c0.6-1,1.8-1.6,3.1-1.6c1.9,0,3.4,1.3,3.6,3c-0.8,0.1-1.3,0.5-1.1,1.5c0.3-0.2,0.6-0.4,1-0.5c0,0,0,0,0,0c0.1,0,0.2-0.1,0.2-0.1
			c0,0,0,0,0,0c0.2-0.1,0.5-0.1,0.8-0.1c1.6,0,2.9,1.2,2.9,2.6c0,1.4-1.2,2.5-2.6,2.6v0h-7.9c0.2,0.4,0.4,0.7,0.6,1.1
			c1.9,0.6,3.6,1.6,5.1,2.9h2.2c0.3,0,0.5,0,0.8-0.1c3.4-0.5,5.8-3.2,5.8-6.5C84,46.5,82.1,44.1,79.5,43.2z"/>
		<path class="st0" d="M32,63.8c0-0.6,0-1.2,0.1-1.8l-12.2,0l0,0c-2.2-0.4-3.9-2.5-3.9-5c0-2.7,2-4.9,4.5-4.9
			c-0.3,1-0.2,1.9,0.9,2.3c0-0.7,0.2-1.5,0.5-2.2c0,0,0,0,0,0c0,0,0-0.1,0-0.1c0.1-0.3,0.3-0.6,0.4-0.9c0.9-1.4,2.5-2.3,4.3-2.3
			c2.6,0,4.8,1.9,5,4.3c-1.1,0.2-1.8,0.8-1.5,2.1c0.4-0.3,0.9-0.5,1.4-0.7c0,0,0,0,0,0c0.1,0,0.2-0.1,0.3-0.1c0,0,0,0,0.1,0
			c0.3-0.1,0.7-0.1,1.1-0.1c0.7,0,1.3,0.2,1.8,0.4c0.8-1.1,1.7-2.1,2.8-3c-0.8-0.5-1.6-0.9-2.5-1.2c-1.2-3.4-4.6-5.7-8.5-5.7
			c-2.7,0-5.3,1.2-7,3.2c-4.3,0.5-7.6,4.3-7.6,8.9c0,4.4,3.1,8.2,7.2,8.9c0.2,0,0.4,0.1,0.7,0.1c0.1,0,0.2,0,0.3,0h12
			C32.1,65.3,32,64.5,32,63.8z"/>
		<path class="st1" d="M54.3,44.1c0.6-0.1,1.3-0.1,1.9-0.1c0.6,0,1.1,0,1.7,0.1l0.1-0.3c0.5-1.2,1.2-2.2,2.1-3.1
			c-0.4-0.1-0.9-0.2-1.4-0.2C56.6,40.5,54.7,42,54.3,44.1z"/>
		<ellipse class="st1" cx="44.9" cy="37.4" rx="3.1" ry="3.1"/>
		<path class="st1" d="M17.7,44.5c2.4-2.2,5.6-3.5,9-3.5c3.4,0,6.5,1.3,8.8,3.4c2-1,3.3-3.1,3.3-5.5c0-3.4-2.8-6.2-6.2-6.2
			c-2,0-3.8,1-4.9,2.5c-1-1.8-1.3-3.1-0.8-3.6c9.3-9.4,24.4-9.4,33.7,0c1.8,1.8,3.3,3.9,4.4,6.1c0,0,0.1,0,0.1,0
			c1.3-1,2.7-1.8,4.3-2.2C64.4,26.2,54.7,20,43.5,20C28.4,20,16,31.3,14.2,45.9C15.3,45.3,16.4,44.8,17.7,44.5z"/>
	</g>
</g>
<g id="Layer_1_1_">
</g>
</svg>