<svg version="1.1" id="ico_x5F_16_2_" xmlns="http://www.w3.org/2000/svg" xmlns:xlink="http://www.w3.org/1999/xlink" x="0px"
	 y="0px" viewBox="0 0 96 96" style="enable-background:new 0 0 96 96;" xml:space="preserve">
<style type="text/css">
	.st0{fill:#0E55A7;}
</style>
<g id="ico_x5F_16">
	<g id="ico_x5F_16_1_">
		<path class="st0" d="M39.1,65.9c-0.8,3.1,0.9,6.3,3.7,7.1c2.8,0.8,5.7-1,6.5-4.1c0.8-3.1-2.4-12.7-2.4-12.7S39.9,62.8,39.1,65.9z"
			/>
		<path class="st0" d="M54.7,58.4c-0.6,2.3,0.7,4.7,3,5.3c2.3,0.6,4.6-0.8,5.2-3.1S61,51.1,61,51.1S55.3,56,54.7,58.4z"/>
		<path class="st0" d="M53.6,71.7c-0.4,1.7,0.5,3.3,2.1,3.8c1.6,0.4,3.3-0.5,3.7-2.2c0.4-1.6-1.4-6.8-1.4-6.8S54,70.1,53.6,71.7z"/>
		<path class="st0" d="M32.9,58.1c-0.4,1.6,0.5,3.3,2.1,3.8s3.3-0.5,3.7-2.2c0.4-1.6-1.4-6.8-1.4-6.8S33.3,56.5,32.9,58.1z"/>
		<path class="st0" d="M44.9,80.1c-0.4,1.6,0.5,3.3,2.1,3.8s3.3-0.5,3.7-2.2c0.4-1.6-1.4-6.8-1.4-6.8S45.3,78.5,44.9,80.1z"/>
		<path class="st0" d="M35.5,78.2c-0.3,1.1,0.3,2.2,1.4,2.5s2.2-0.4,2.5-1.5c0.3-1.1-0.9-4.5-0.9-4.5S35.8,77.1,35.5,78.2z"/>
		<path class="st0" d="M24,71.3c-0.6,2.3,0.7,4.7,3,5.3c2.3,0.6,4.6-0.8,5.2-3.1c0.6-2.3-1.9-9.6-1.9-9.6S24.6,68.9,24,71.3z"/>
		<path class="st0" d="M68.9,35c-1.5-9.2-10.1-16-20.5-16c-7.3,0-13.9,3.3-17.7,8.9c0,0.1-0.1,0.1-0.1,0.2c0,0-0.1,0.1-0.1,0.1
			c-0.4-0.1-0.9-0.2-1.3-0.2c0,0-0.1,0-0.1,0C18.4,28.5,10,37,10,47.6c0,8.3,5.2,15.5,12.8,18.2c1.2-1.4,2.5-2.7,3.8-3.9
			C20,60.5,15,54.5,15,47.6c0-7.8,6.3-14.2,14.2-14.4c-0.9,2.8-0.6,5.5,2.7,6.8c-0.1-2,0.6-4.2,1.5-6.3c0,0,0,0,0,0
			c0-0.1,0.1-0.1,0.1-0.2c0.4-0.9,0.9-1.8,1.4-2.7c2.7-4,7.8-6.7,13.6-6.7c8.2,0,15,5.5,15.7,12.5c-3.4,0.6-5.6,2.3-4.7,6.2
			c1.3-0.8,2.8-1.5,4.3-2c0,0,0,0,0,0c0.3-0.1,0.7-0.2,1-0.3c0.1,0,0.1,0,0.2,0c1.1-0.3,2.2-0.4,3.4-0.4c7,0,12.7,4.9,12.7,11
			c0,5.8-5.1,10.5-11.5,11h-2.8c-0.7,2.2-2.2,4-4.2,5h7c0.4,0,0.8-0.1,1.2-0.1C79.5,65.8,86,59.1,86,51C86,42.3,78.4,35.2,68.9,35z"
			/>
	</g>
</g>
<g id="Layer_1_1_">
</g>
</svg>
