<svg version="1.1" id="ico_x5F_17_2_" xmlns="http://www.w3.org/2000/svg" xmlns:xlink="http://www.w3.org/1999/xlink" x="0px"
	 y="0px" viewBox="0 0 96 96" style="enable-background:new 0 0 96 96;" xml:space="preserve">
<style type="text/css">
	.st0{fill:#0E55A7;}
</style>
<g id="ico_x5F_17">
	<g id="ico_x5F_17_1_">
		<path class="st0" d="M68.9,38c-1.5-9.2-10.1-16-20.5-16c-7.3,0-13.9,3.3-17.7,8.9c0,0.1-0.1,0.1-0.1,0.2c0,0-0.1,0.1-0.1,0.1
			c-0.4-0.1-0.9-0.2-1.3-0.2c0,0-0.1,0-0.1,0C18.4,31.5,10,40,10,50.6c0,7.9,4.7,14.7,11.6,17.7c0.6-1.6,2-2.8,3.8-3.1
			c0-0.2,0.1-0.4,0.2-0.6c-6.1-1.8-10.5-7.5-10.5-14c0-7.8,6.3-14.2,14.2-14.4c-0.9,2.8-0.6,5.5,2.7,6.8c-0.1-2,0.6-4.2,1.5-6.3
			c0,0,0,0,0,0c0-0.1,0.1-0.1,0.1-0.2c0.4-0.9,0.9-1.8,1.4-2.7c2.7-4,7.8-6.7,13.6-6.7c8.2,0,15,5.5,15.7,12.5
			c-3.4,0.6-5.6,2.3-4.7,6.2c1.3-0.8,2.8-1.5,4.3-2c0,0,0,0,0,0c0.3-0.1,0.7-0.2,1-0.3c0.1,0,0.1,0,0.2,0c1.1-0.3,2.2-0.4,3.4-0.4
			c7,0,12.7,4.9,12.7,11c0,5.8-5.1,10.5-11.5,11h-3.7c0.2,0.8,0.2,2,0.1,2.8c-0.1,0.6-0.5,1.6-1,2.2h4.7c0.4,0,0.8-0.1,1.2-0.1
			C79.5,68.8,86,62.1,86,54C86,45.3,78.4,38.2,68.9,38z"/>
		<path class="st0" d="M48,61.2c-0.2-0.3-0.5-0.4-0.8-0.4c-0.2,0-0.3,0-0.5,0.1l-2.4,1.4l-0.7-2.5c-0.1-0.4-0.5-0.7-1-0.7
			c-0.1,0-0.1,0-0.2,0L42.2,59c-0.3,0.1-0.5,0.2-0.6,0.5c-0.1,0.2-0.2,0.5-0.1,0.8l0.7,2.6l-3.2-0.2c0,0,0,0-0.1,0
			c-0.5,0-1,0.4-1,0.9l0,0.2c0,0.3,0.1,0.5,0.2,0.7s0.4,0.3,0.7,0.3l3,0.2l-1.1,2.5c-0.1,0.3-0.1,0.5,0,0.8c0.1,0.3,0.3,0.5,0.6,0.6
			l0.2,0.1c0.1,0,0.2,0.1,0.4,0.1c0.4,0,0.8-0.2,0.9-0.6l1.2-2.8l2.3,1.8c0.2,0.1,0.4,0.2,0.6,0.2c0.3,0,0.5-0.1,0.7-0.3l0.1-0.2
			c0.2-0.2,0.3-0.5,0.3-0.8c0-0.3-0.2-0.5-0.4-0.7l-2-1.6l2.2-1.3c0.2-0.1,0.4-0.4,0.5-0.6s0-0.6-0.1-0.8L48,61.2z"/>
		<path class="st0" d="M61.8,65.7l-0.1-0.2c-0.2-0.3-0.5-0.4-0.8-0.4c-0.2,0-0.3,0-0.5,0.1l-2.8,1.6l-0.8-3c-0.1-0.4-0.5-0.7-1-0.7
			c-0.1,0-0.1,0-0.2,0l-0.3,0.1c-0.3,0.1-0.5,0.2-0.6,0.5c-0.1,0.2-0.2,0.5-0.1,0.8l0.8,3.1l-3.8-0.3c0,0,0,0-0.1,0
			c-0.5,0-1,0.4-1,0.9l0,0.2c0,0.3,0.1,0.5,0.2,0.7c0.2,0.2,0.4,0.3,0.7,0.3l3.5,0.2l-1.3,2.9c-0.1,0.3-0.1,0.5,0,0.8
			c0.1,0.3,0.3,0.5,0.6,0.5l0.2,0.1c0.1,0,0.2,0.1,0.4,0.1c0.4,0,0.8-0.2,0.9-0.6l1.5-3.3l2.7,2.1c0.2,0.1,0.4,0.2,0.6,0.2
			c0.3,0,0.5-0.1,0.7-0.3l0.2-0.2c0.2-0.2,0.3-0.5,0.3-0.8c0-0.3-0.2-0.5-0.4-0.7l-2.4-1.9l2.6-1.5c0.2-0.1,0.4-0.4,0.5-0.6
			C62,66.2,61.9,65.9,61.8,65.7z"/>
		<path class="st0" d="M36.4,67.5c-0.2-0.3-0.5-0.4-0.8-0.4c-0.2,0-0.3,0-0.5,0.1l-2.8,1.6l-0.8-3c-0.1-0.4-0.5-0.7-1-0.7
			c-0.1,0-0.1,0-0.2,0l-0.3,0.1c-0.3,0.1-0.5,0.2-0.6,0.5c-0.1,0.2-0.2,0.5-0.1,0.8l0.8,3.1l-3.8-0.3c0,0,0,0-0.1,0
			c-0.5,0-1,0.4-1,0.9l0,0.2c0,0.3,0.1,0.5,0.2,0.7c0.2,0.2,0.4,0.3,0.7,0.3l3.5,0.2l-1.3,2.9c-0.1,0.3-0.1,0.5,0,0.8
			c0.1,0.3,0.3,0.5,0.6,0.5l0.2,0.1c0.1,0,0.2,0.1,0.4,0.1c0.4,0,0.8-0.2,0.9-0.6l1.5-3.3l2.7,2.1c0.2,0.1,0.4,0.2,0.6,0.2
			c0.3,0,0.5-0.1,0.7-0.3l0.2-0.2c0.2-0.2,0.3-0.5,0.3-0.8c0-0.3-0.2-0.5-0.4-0.7l-2.4-1.9l2.6-1.5c0.2-0.1,0.4-0.4,0.5-0.6
			c0.1-0.3,0-0.6-0.1-0.8L36.4,67.5z"/>
	</g>
</g>
<g id="Layer_1_1_">
</g>
</svg>